Coordinates
version=1
nRows=38
nColumns=12
inDegrees=yes

Units are S.I. units (second, meters, Newtons, ...)
Angles are in degrees

endheader
time	SC_y	SC_z	SC_x	AC_y	AC_z	AC_x	GH_y	GH_z	GH_yy	EL_x	PS_y
       0.0               -59.8          4.752          35.75          34.43          -16.3          12.82         -69.08         -8.625          156.3          20.46          38.11
   0.04642               -59.8          4.755          35.76          34.43         -16.29          12.82         -69.07         -8.624          156.2          20.46          38.12
   0.09284               -59.8          4.757          35.76          34.43         -16.29          12.81         -69.06         -8.624          156.2          20.46          38.14
    0.1393               -59.8           4.76          35.77          34.44         -16.29          12.81         -69.05         -8.623          156.1          20.47          38.16
    0.1857               -59.8          4.763          35.78          34.44         -16.29           12.8         -69.04         -8.622          156.1          20.47          38.18
    0.2321               -59.8          4.767          35.78          34.45         -16.29           12.8         -69.03         -8.621          156.1          20.48          38.21
    0.2785               -59.8           4.77          35.79          34.45         -16.29          12.79         -69.02          -8.62          156.0          20.48          38.23
    0.3249               -59.8          4.774           35.8          34.46         -16.29          12.79          -69.0         -8.619          155.9          20.49          38.25
    0.3713              -59.79          4.778          35.81          34.46         -16.28          12.78         -68.99         -8.618          155.9          20.49          38.28
    0.4178              -59.79          4.783          35.82          34.47         -16.28          12.78         -68.97         -8.617          155.8           20.5          38.31
    0.4642              -59.79          4.788          35.83          34.48         -16.28          12.77         -68.96         -8.616          155.8          20.51          38.34
    0.5106              -59.79          4.793          35.84          34.48         -16.28          12.76         -68.94         -8.615          155.7          20.52          38.37
     0.557              -59.79          4.798          35.85          34.49         -16.28          12.76         -68.92         -8.613          155.6          20.52          38.41
    0.6034              -59.79          4.804          35.86           34.5         -16.27          12.75          -68.9         -8.612          155.5          20.53          38.45
    0.6499              -59.79           4.81          35.88          34.51         -16.27          12.74         -68.88          -8.61          155.4          20.54          38.49
    0.6963              -59.78          4.817          35.89          34.52         -16.27          12.73         -68.86         -8.609          155.4          20.55          38.54
    0.7427              -59.78          4.825          35.91          34.53         -16.27          12.72         -68.83         -8.607          155.2          20.56          38.59
    0.7891              -59.78          4.833          35.93          34.54         -16.26          12.71          -68.8         -8.605          155.1          20.58          38.64
    0.8355              -59.78          4.842          35.95          34.55         -16.26          12.69         -68.77         -8.602          155.0          20.59           38.7
     0.882              -59.77          4.852          35.97          34.57         -16.25          12.68         -68.74           -8.6          154.9           20.6          38.76
    0.9284              -59.77          4.863          35.99          34.58         -16.25          12.67          -68.7         -8.597          154.7          20.62          38.83
    0.9748              -59.77          4.875          36.02           34.6         -16.25          12.65         -68.66         -8.594          154.6          20.64          38.91
     1.021              -59.76          4.888          36.05          34.61         -16.24          12.63         -68.62         -8.591          154.4          20.66           39.0
     1.068              -59.76          4.903          36.08          34.63         -16.23          12.61         -68.57         -8.587          154.2          20.68          39.09
     1.114              -59.76          4.919          36.12          34.66         -16.23          12.59         -68.52         -8.583          153.9           20.7           39.2
      1.16              -59.75          4.937          36.16          34.68         -16.22          12.56         -68.46         -8.579          153.7          20.73          39.32
     1.207              -59.75          4.957           36.2          34.71         -16.21          12.54         -68.39         -8.574          153.4          20.76          39.45
     1.253              -59.74           4.98          36.25          34.74          -16.2           12.5         -68.31         -8.568          153.1          20.79           39.6
       1.3              -59.73          5.006          36.31          34.78         -16.19          12.47         -68.22         -8.562          152.7          20.83          39.77
     1.346              -59.72          5.035          36.37          34.82         -16.18          12.43         -68.12         -8.555          152.3          20.87          39.96
     1.393              -59.71          5.068          36.44          34.86         -16.17          12.38         -68.01         -8.546          151.9          20.92          40.18
     1.439               -59.7          5.107          36.53          34.92         -16.15          12.33         -67.88         -8.537          151.4          20.98          40.43
     1.485              -59.69          5.151          36.62          34.98         -16.13          12.27         -67.73         -8.526          150.7          21.05          40.72
     1.532              -59.68          5.202          36.74          35.05         -16.11           12.2         -67.56         -8.513          150.0          21.12          41.05
     1.578              -59.66          5.263          36.87          35.13         -16.09          12.12         -67.36         -8.498          149.2          21.21          41.45
     1.625              -59.64          5.333          37.02          35.23         -16.06          12.02         -67.12          -8.48          148.2          21.32          41.91
     1.671              -59.62          5.418          37.21          35.34         -16.02           11.9         -66.84         -8.459          147.0          21.44          42.46
     1.717              -59.59          5.519          37.43          35.48         -15.98          11.76          -66.5         -8.434          145.7          21.59          43.12
